<svg width="160" height="42" viewBox="0 0 156 40" xmlns="http://www.w3.org/2000/svg"><path fill="#F94855" fill-rule="evenodd" d="M149.215 12.694c3.926 0 6.785-2.854 6.785-6.347C156 2.903 152.995 0 149.215 0c-3.78 0-6.784 2.903-6.784 6.347 0 3.493 3.004 6.347 6.784 6.347zm-4.555 26.42h9.208c1.066 0 1.696-.64 1.696-1.722V16.236c0-1.082-.63-1.722-1.696-1.722h-9.208c-1.066 0-1.696.64-1.696 1.722v21.156c0 1.083.63 1.722 1.696 1.722zM63.63 13.53c-9.256 0-14.83 5.953-14.83 13.235C48.8 34.047 54.617 40 63.63 40c9.208 0 14.684-5.953 14.635-13.235-.048-7.282-5.767-13.235-14.635-13.235zm-.097 16.876c-2.23 0-3.78-1.722-3.78-3.641 0-1.87 1.55-3.69 3.78-3.69 2.278 0 3.829 1.82 3.829 3.69 0 1.919-1.551 3.64-3.829 3.64zM35.958 15.695l-3.392 8.266c-.242.59-.23.738-.715.738h-1.18c-.34 0-.528-.065-.528-.475v-8.086c0-1.083-.727-1.624-1.987-1.624h-7.608c-.921 0-1.6.394-1.939 1.23l-3.634 8.364c-.243.541-.388.59-.776.59h-.97c-.387 0-.58-.049-.58-.491v-7.97c0-1.083-.679-1.723-1.745-1.723h-9.16c-1.017 0-1.647.64-1.647 1.722L0 37.392c0 1.083.63 1.722 1.648 1.722h12.987c.873 0 1.648-.393 2.036-1.18l3.731-7.577c.34-.64.485-.738 1.066-.738h1.163c.388 0 .534.196.534.738l-.049 7.035c0 1.083.63 1.722 1.696 1.722H37.51c.921 0 1.696-.393 2.036-1.18l9.207-20.763c.533-1.23.194-2.657-1.357-2.657h-9.401c-.921 0-1.696.394-2.036 1.18zm74.56 23.42h9.159c.92 0 1.648-.739 1.648-1.723v-6.79c0-.344.193-.59.533-.59.194 0 .436.099.63.492 1.163 2.362 2.471 4.92 3.683 7.43.436.885 1.114 1.18 2.035 1.18h10.468c1.308 0 1.938-1.377 1.211-2.558l-5.766-9.545c-.485-.836-.437-1.574.096-2.41l5.04-7.528c.776-1.132.388-2.608-1.066-2.608h-9.837c-.97 0-1.551.344-2.084 1.18 0 0-3.199 4.822-3.974 5.856-.146.147-.29.246-.485.246-.29 0-.484-.246-.484-.542V2.411c0-1.18-.679-1.82-1.745-1.82h-9.062c-.921 0-1.697.787-1.697 1.82v34.981c0 .984.776 1.722 1.697 1.722zM93.53 20.171c-.34 0-.388-.147-.388-.492v-3.444c0-1.033-.63-1.722-1.744-1.722h-9.014c-1.066 0-1.648.689-1.648 1.722v21.206c0 1.082.582 1.672 1.648 1.672h9.207c1.115 0 1.745-.59 1.745-1.672v-8.463c0-1.033.727-1.673 1.793-1.673h8.869c1.066 0 1.696-.64 1.696-1.722v-9.397c0-1.082-.776-1.771-1.842-1.82-4.168-.197-7.27 1.18-8.53 4.182-.145.295-.29.64-.435 1.033-.146.393-.194.59-.533.59h-.824z"></path></svg>