<svg height="512pt" fill='#6567E3' viewBox="0 -66 512 512" width="512pt" xmlns="http://www.w3.org/2000/svg"><path d="m100 180c-22.054688 0-40 17.945312-40 40s17.945312 40 40 40 40-17.945312 40-40-17.945312-40-40-40zm0 60c-11.027344 0-20-8.972656-20-20s8.972656-20 20-20 20 8.972656 20 20-8.972656 20-20 20zm0 0"/><path d="m412 180c-22.054688 0-40 17.945312-40 40s17.945312 40 40 40 40-17.945312 40-40-17.945312-40-40-40zm0 60c-11.027344 0-20-8.972656-20-20s8.972656-20 20-20 20 8.972656 20 20-8.972656 20-20 20zm0 0"/><path d="m266 10c0 5.523438-4.476562 10-10 10s-10-4.476562-10-10 4.476562-10 10-10 10 4.476562 10 10zm0 0"/><path d="m502 100c5.523438 0 10-4.476562 10-10s-4.476562-10-10-10h-30c-2.6875 0-5.261719 1.082031-7.144531 3.003906l-23.667969 24.167969c-16.65625-86.652344-16-83.242187-16.035156-83.417969-2.921875-13.765625-15.261719-23.753906-29.34375-23.753906h-94.808594c-5.523438 0-10 4.476562-10 10s4.476562 10 10 10h94.808594c4.667968 0 8.761718 3.289062 9.761718 7.828125l17.714844 92.171875h-73.144531l-57.070313-57.070312c-3.90625-3.90625-10.234374-3.90625-14.140624 0s-3.90625 10.234374 0 14.140624l42.925781 42.929688h-97.714844l-57.070313-57.070312c-3.90625-3.90625-10.234374-3.90625-14.140624 0s-3.90625 10.234374 0 14.140624l42.925781 42.929688h-107.140625l17.714844-92.171875c1-4.539063 5.09375-7.828125 9.761718-7.828125h94.808594c5.523438 0 10-4.476562 10-10s-4.476562-10-10-10h-94.808594c-14.613281 0-26.839844 10.714844-29.382812 23.941406l-15.996094 83.230469-23.667969-24.167969c-1.882812-1.921875-4.457031-3.003906-7.144531-3.003906h-30c-5.523438 0-10 4.476562-10 10s4.476562 10 10 10h25.796875l20.851563 21.292969c-32.230469 6.25-56.648438 34.675781-56.648438 68.707031v90c0 22.054688 17.945312 40 40 40h20v20c0 22.054688 17.945312 40 40 40s40-17.945312 40-40v-20h232v20c0 22.054688 17.945312 40 40 40s40-17.945312 40-40v-20h20c22.054688 0 40-17.945312 40-40v-90c0-34.03125-24.417969-62.457031-56.648438-68.707031l20.851563-21.292969zm-382 240c0 11.027344-8.972656 20-20 20s-20-8.972656-20-20v-20h40zm56.769531-70h158.460938l12 30h-182.460938zm8-20 12-30h118.460938l12 30zm247.230469 90c0 11.027344-8.972656 20-20 20s-20-8.972656-20-20v-20h40zm60-150v90c0 11.027344-8.972656 20-20 20h-103.230469c-3.636719-9.097656-33.015625-82.539062-37.484375-93.714844-1.519531-3.796875-5.195312-6.285156-9.285156-6.285156h-132c-4.089844 0-7.765625 2.488281-9.285156 6.285156-3.910156 9.773438-33.253906 83.136719-37.484375 93.714844h-103.230469c-11.027344 0-20-8.972656-20-20v-90c0-27.570312 22.429688-50 50-50h372c27.570312 0 50 22.429688 50 50zm0 0"/></svg>