<svg id="Capa_1" enable-background="new 0 0 507.632 507.632" height="512" fill='#C377D3' viewBox="0 0 507.632 507.632" width="512" xmlns="http://www.w3.org/2000/svg"><g><path d="m155.59 8.596c-.682-4.854-4.995-8.596-9.898-8.596h-87.936c-2.426 0-4.77.882-6.594 2.482l-43.968 38.565c-2.14 1.877-3.406 4.671-3.406 7.518v449.067c0 5.523 4.477 10 10 10h87.936c2.405 0 4.786-.896 6.594-2.482l43.968-38.564c2.138-1.875 3.406-4.673 3.406-7.518v-449.068c-.034-.468-.068-.936-.102-1.404zm-94.07 11.404h57.605l-21.165 18.565h-57.606zm-37.732 467.632v-429.067h67.936v37c0 12.84 20 12.859 20 0v-42.469l23.968-21.023v422.463l-23.968 21.022v-296.992c0-12.84-20-12.859-20 0v309.066z"/><path d="m329.666 161.507c-.682-4.855-4.995-8.596-9.898-8.596h-87.936c-2.426 0-4.77.882-6.594 2.482l-43.968 38.564c-2.14 1.877-3.406 4.671-3.406 7.518v296.157c0 5.523 4.477 10 10 10h87.936c2.402 0 4.788-.898 6.594-2.482l43.968-38.564c2.138-1.875 3.406-4.673 3.406-7.518v-296.157c-.034-.468-.068-.936-.102-1.404zm-43.866 44.499 23.968-21.022v269.553l-23.968 21.022zm-50.204-33.095h57.605l-21.166 18.564h-57.605zm-37.732 38.564h67.936v276.157h-67.936z"/><path d="m501.982 464.864c1.193-1.674 1.861-3.738 1.861-5.797v-174.763c0-5.429-4.566-10-10-10h-87.936c-2.426 0-4.77.882-6.594 2.482l-43.968 38.565c-2.14 1.877-3.406 4.671-3.406 7.518v31.109c0 12.84 20 12.859 20 0v-21.109h67.936v154.763h-67.935v-52.565c0-12.84-20-12.859-20 0v62.565c0 5.523 4.477 10 10 10h87.936c2.402 0 4.788-.898 6.594-2.482l43.968-38.564c.581-.51 1.097-1.093 1.544-1.722zm-42.106 10.695v-148.16l23.968-21.023v148.16zm-71.37-162.69 21.166-18.565h57.605l-21.166 18.565z"/><path d="m92.49 141.002c2.066 5.04 8.039 7.494 13.06 5.41 5.035-2.09 7.497-8.02 5.41-13.06-2.083-5.031-8.03-7.498-13.06-5.41-5.025 2.086-7.506 8.03-5.41 13.06z"/><path d="m353.63 400.583c4.893 7.342 16.635 4.855 18.153-3.844 1.599-9.161-9.669-15.362-16.559-9.123-3.65 3.304-4.273 8.88-1.594 12.967z"/></g></svg>