<svg id="Capa_1" fill='#6567E3' enable-background="new 0 0 505.953 505.953" height="512" viewBox="0 0 505.953 505.953" width="512" xmlns="http://www.w3.org/2000/svg"><path d="m497.742 160.001c0-53.548-43.564-97.113-97.113-97.113-6.538 0-12.926.654-19.105 1.892-41.109-36.675-93.918-56.837-149.151-56.837-22.966 0-45.583 3.464-67.282 10.284-15.942-11.465-35.482-18.227-56.573-18.227-73.776 0-121.451 83.109-83.49 146.816-11.15 27.065-16.817 55.739-16.817 85.289 0 73.89 36.276 142.76 97.122 184.685 4.021 49.73 46.851 89.163 96.781 89.163 37.844 0 73.218-22.84 88.671-57.402 35.979-9.692 69.255-28.412 96.362-54.292 9.288-8.867-4.508-23.343-13.811-14.466-21.595 20.617-47.482 36.24-75.546 45.743 2.56-14.833 1.669-30.252-2.675-44.669 25.177-10.625 47.292-27.481 64.301-49.145 17.187-21.89 28.315-47.67 32.501-75.01 14.812 1.324 29.911-.775 43.783-6.147-2.116 23.763-8.3 46.695-18.47 68.321-5.393 11.467 12.608 20.187 18.098 8.512 13.001-27.643 20.086-57.216 21.08-87.905 25.96-18.213 41.334-47.601 41.334-79.492zm-20 0c0 21.098-8.473 40.824-23.225 55.185-4.278-12.936-13.319-24.105-25.027-31.058 8.354-7.964 13.198-19.221 13.198-30.766 0-23.445-19.074-42.519-42.519-42.519s-42.52 19.074-42.52 42.519c0 11.711 4.988 23.122 13.557 31.103-11.437 6.964-20.261 18.002-24.467 30.721-14.752-14.361-23.225-34.087-23.225-55.185 0-42.521 34.593-77.113 77.113-77.113s77.115 34.592 77.115 77.113zm-55.054-6.638c0 12.417-10.102 22.519-22.519 22.519s-22.52-10.102-22.52-22.519 10.103-22.519 22.52-22.519 22.519 10.102 22.519 22.519zm-63.432-81.208c-13.548 6.407-25.386 15.855-34.626 27.461-35.259-24.652-79.652-34.057-121.93-26.207-3.704-14.71-10.772-28.095-20.335-39.289 16.271-4.096 33.031-6.176 50.008-6.176 46.378-.001 90.879 15.604 126.883 44.211zm-250.738-52.155c42.521 0 77.114 34.593 77.114 77.114 0 21.098-8.473 40.824-23.226 55.185-4.279-12.931-13.317-24.112-25.028-31.058 8.356-7.962 13.199-19.222 13.199-30.765 0-23.445-19.074-42.519-42.519-42.519s-42.518 19.074-42.518 42.519c0 11.713 4.989 23.12 13.557 31.103-11.437 6.963-20.262 18.002-24.467 30.721-14.753-14.361-23.226-34.087-23.226-55.185 0-42.522 34.593-77.115 77.114-77.115zm-36.397 145.113c5.517-40.554 67.07-42.066 72.793 0-22.494 12.063-50.298 12.063-72.793 0zm13.419-74.637c0-12.417 10.102-22.519 22.519-22.519s22.519 10.102 22.519 22.519-10.102 22.519-22.519 22.519-22.519-10.102-22.519-22.519zm-57.329 141.629c0-22.98 3.758-45.373 11.168-66.762 10.463 10.567 23.358 18.704 37.415 23.56-3.884 14.011-5.856 28.505-5.856 43.202 0 45.76 19.156 88.827 52.824 119.429-8.765 11.952-14.863 25.973-17.415 41.183-49.172-38.61-78.136-97.608-78.136-160.612zm173.903 253.848c-12.778 0-25.247-3.136-36.397-9.115 5.56-41.042 67.193-41.124 72.794 0-11.148 5.979-23.617 9.115-36.397 9.115zm-22.977-83.752c0-12.417 10.102-22.519 22.519-22.519s22.519 10.102 22.519 22.519-10.102 22.519-22.519 22.519-22.519-10.102-22.519-22.519zm75.866 61.823c-4.278-12.936-13.319-24.105-25.027-31.058 9.438-9.002 14.302-22.123 12.978-35.107-2.181-21.413-19.319-38.177-41.299-38.177-23.444 0-42.519 19.074-42.519 42.519 0 11.711 4.989 23.121 13.556 31.103-11.439 6.965-20.259 18.002-24.467 30.721-14.752-14.361-23.225-34.087-23.225-55.185 0-42.521 34.593-77.114 77.113-77.114s77.114 34.593 77.114 77.114c.002 21.098-9.471 40.824-24.224 55.184zm32.392-101.607c-16.493-30.177-48.535-50.692-85.281-50.692-24.947 0-47.724 9.458-64.942 24.974-29.469-26.812-46.235-64.526-46.235-104.594 0-13.167 1.801-26.142 5.351-38.661 22.353 2.82 45.331-2.263 64.344-14.376.002-.002.004-.003.007-.005 28.173-17.952 44.992-48.587 44.992-81.951 0-1.303-.033-2.598-.085-3.889 8.8-1.687 17.794-2.555 26.826-2.555 29.547 0 57.568 8.902 81.462 25.803-26.571 52.767 1.98 119.199 58.435 136.413-7.188 48.525-39.643 90.392-84.874 109.533zm76.837-134.417c5.589-41.013 67.196-41.084 72.794 0-22.495 12.063-50.299 12.064-72.794 0z"/><path d="m416.789 354.678c-3.401-8.158-15.342-7.998-18.542.205-3.305 8.474 6.02 16.697 14.023 12.436 4.495-2.392 6.441-7.949 4.519-12.641z"/></svg>