<svg height="512pt" fill='#327E9C' viewBox="0 -36 512.00138 512" width="512pt" xmlns="http://www.w3.org/2000/svg"><path d="m482.1875 84.585938h-322.082031l-8.5-34.320313c-3.691407-14.980469-17.042969-25.445313-32.472657-25.445313h-9.433593v-9.207031c0-8.609375-7.003907-15.613281-15.613281-15.613281h-58.902344c-19.398438 0-35.183594 15.785156-35.183594 35.183594 0 19.402344 15.785156 35.1875 35.183594 35.1875h58.902344c8.609374 0 15.617187-7.007813 15.617187-15.617188v-9.933594h9.429687c6.203126 0 11.570313 4.207032 13.058594 10.242188.027344.117188 62.546875 254.554688 76.511719 308.941406-13.488281 6.277344-22.863281 19.949219-22.863281 35.777344 0 21.75 17.695312 39.445312 39.445312 39.445312 18.296875 0 33.71875-12.519531 38.15625-29.445312h154.429688c4.4375 16.925781 19.863281 29.445312 38.15625 29.445312 21.75 0 39.445312-17.695312 39.445312-39.445312s-17.695312-39.445312-39.445312-39.445312c-18.296875 0-33.71875 12.523437-38.15625 29.445312h-154.429688c-4.179687-15.941406-18.113281-27.964844-35.011718-29.308594l-4.921876-19.882812c5.75 2.324218 12.007813 3.59375 18.523438 3.59375h195.765625c24.519531 0 45.519531-18.316406 48.84375-42.609375 7.597656-55.484375 23.285156-170.023438 25.082031-183.136719 2.449219-17.902344-11.484375-33.851562-29.535156-33.851562zm-392.484375-34.214844h-54.519531c-8.371094 0-15.183594-6.8125-15.183594-15.1875 0-8.371094 6.8125-15.183594 15.183594-15.183594h54.519531zm366.324219 329.964844c10.726562 0 19.445312 8.722656 19.445312 19.445312s-8.722656 19.445312-19.445312 19.445312c-10.71875 0-19.445313-8.722656-19.445313-19.445312s8.726563-19.445312 19.445313-19.445312zm-211.296875 19.445312c0 10.726562-8.722657 19.445312-19.445313 19.445312s-19.449218-8.722656-19.449218-19.445312c0-10.71875 8.726562-19.445312 19.449218-19.445312 10.71875 0 19.445313 8.722656 19.445313 19.445312zm222.09375-100.917969c-1.976563 14.4375-14.457031 25.320313-29.027344 25.320313h-195.765625c-12.054688 0-22.648438-7.300782-27.09375-18.191406l-38.1875-154.195313h181.664062c5.523438 0 10-4.476563 10-10 0-5.519531-4.476562-10-10-10h-186.617187l-6.738281-27.210937h317.128906c5.941406 0 10.527344 5.21875 9.71875 11.136718l-2.203125 16.074219h-51.289063c-5.519531 0-10 4.480469-10 10 0 5.523437 4.480469 10 10 10h48.550782zm0 0"/><path d="m339.179688 171.535156c-5.519532 0-10 4.476563-10 10v95.996094c0 5.523438 4.480468 10 10 10 5.523437 0 10-4.476562 10-10v-95.996094c0-5.523437-4.476563-10-10-10zm0 0"/><path d="m242.75 192.296875c-1.199219-5.390625-6.539062-8.789063-11.929688-7.59375-5.394531 1.199219-8.792968 6.542969-7.59375 11.933594l18.457032 83.0625c1.039062 4.660156 5.171875 7.832031 9.753906 7.832031 6.398438 0 11.160156-5.921875 9.769531-12.171875zm0 0"/><path d="m439.601562 184.539062c-5.492187-.664062-10.460937 3.257813-11.117187 8.738282l-9.976563 83.382812c-.65625 5.484375 3.257813 10.460938 8.742188 11.117188.402344.046875.804688.070312 1.199219.070312 4.992187 0 9.308593-3.730468 9.914062-8.8125l9.980469-83.378906c.65625-5.484375-3.257812-10.464844-8.742188-11.117188zm0 0"/><path d="m398.4375 131.796875h-.023438c-5.519531 0-9.984374 4.480469-9.984374 10 0 5.523437 4.488281 10 10.011718 10 5.523438 0 10-4.476563 10-10 0-5.519531-4.480468-10-10.003906-10zm0 0"/></svg>