<svg height="512pt" fill='#DB5E5E' viewBox="0 0 512 512" width="512pt" xmlns="http://www.w3.org/2000/svg"><path d="m469.429688 310.710938-136.429688-51.621094v-11.921875c18.832031-19.367188 30.453125-45.78125 30.453125-74.863281v-64.851563c0-59.25-48.203125-107.453125-107.453125-107.453125s-107.453125 48.203125-107.453125 107.453125v64.851563c0 29.082031 11.621094 55.496093 30.453125 74.863281v11.921875l-40.164062 15.199218c-5.164063 1.953126-7.769532 7.726563-5.8125 12.890626 1.511718 4 5.316406 6.464843 9.351562 6.464843 1.175781 0 2.375-.210937 3.539062-.648437l33.085938-12.519532v51.222657c0 3.785156 2.140625 7.25 5.527344 8.941406 3.386718 1.695313 7.441406 1.332031 10.472656-.941406l23.054688-17.289063 9.601562 17.566406-24.191406 152.023438h-103.464844v-109c0-5.523438-4.476562-10-10-10-5.519531 0-10 4.476562-10 10v109h-60v-123.964844c0-16.644531 11.636719-31.804687 29.648438-38.617187l21.433593-8.113281c5.164063-1.953126 7.769531-7.722657 5.8125-12.890626-1.953125-5.164062-7.722656-7.769531-12.890625-5.8125l-21.4375 8.109376c-25.859375 9.785156-42.566406 32.285156-42.566406 57.324218v133.964844c0 5.523438 4.476562 10 10 10h201.976562.035157.03125 87.910156.035156.035157 201.976562c5.519531 0 10-4.476562 10-10v-133.964844c0-25.039062-16.707031-47.539062-42.570312-57.324218zm-200.132813-31.78125c15.898437-1.96875 30.726563-7.429688 43.703125-15.582032v48.351563zm-100.75-171.476563c0-48.222656 39.230469-87.453125 87.453125-87.453125s87.453125 39.230469 87.453125 87.453125v5.984375l-50.125-29.449219c-4.210937-2.472656-9.59375-1.542969-12.730469 2.199219-18.492187 22.066406-45.609375 34.722656-74.402344 34.722656h-37.644531v-13.457031zm0 33.457031h37.648437c31.871094 0 62.039063-12.855468 84.027344-35.550781l53.230469 31.273437v35.667969c0 48.222657-39.230469 87.453125-87.453125 87.453125s-87.453125-39.230468-87.453125-87.453125zm30.453125 122.4375c12.976562 8.152344 27.804688 13.613282 43.707031 15.582032l-43.707031 32.769531zm57 30.613282 21.777344 16.328124-9.777344 17.886719h-24l-9.777344-17.886719zm-9.394531 54.21875h18.789062l22.886719 143.820312h-64.5625zm245.394531 143.820312h-60v-109c0-5.523438-4.476562-10-10-10s-10 4.476562-10 10v109h-103.464844l-24.191406-152.023438 9.601562-17.566406 23.054688 17.289063c1.765625 1.320312 3.875 1.996093 6 1.996093 1.523438 0 3.058594-.347656 4.472656-1.054687 3.386719-1.695313 5.527344-5.15625 5.527344-8.945313v-51.222656l129.351562 48.941406c18.011719 6.816407 29.648438 21.972657 29.648438 38.621094zm0 0"/><path d="m256.128906 231.03125c8.339844 0 16.683594-3.175781 23.035156-9.527344 3.90625-3.90625 3.90625-10.238281 0-14.140625-3.90625-3.90625-10.234374-3.90625-14.144531 0-4.902343 4.902344-12.882812 4.902344-17.785156 0-3.90625-3.90625-10.238281-3.90625-14.144531 0-3.902344 3.902344-3.902344 10.234375 0 14.140625 6.351562 6.351563 14.695312 9.527344 23.039062 9.527344zm0 0"/><path d="m104.960938 307.789062c2.628906 0 5.210937-1.058593 7.070312-2.917968 1.859375-1.871094 2.929688-4.441406 2.929688-7.082032 0-2.628906-1.070313-5.199218-2.929688-7.070312-1.859375-1.859375-4.441406-2.929688-7.070312-2.929688-2.628907 0-5.210938 1.070313-7.070313 2.929688s-2.929687 4.441406-2.929687 7.070312c0 2.640626 1.070312 5.210938 2.929687 7.082032 1.859375 1.859375 4.441406 2.917968 7.070313 2.917968zm0 0"/></svg>