<?xml version="1.0" encoding="iso-8859-1"?>
<!-- Generator: Adobe Illustrator 19.0.0, SVG Export Plug-In . SVG Version: 6.00 Build 0)  -->
<svg version="1.1" id="Layer_1" fill='#EA8347' xmlns="http://www.w3.org/2000/svg" xmlns:xlink="http://www.w3.org/1999/xlink" x="0px" y="0px"
	 viewBox="0 0 512.001 512.001" style="enable-background:new 0 0 512.001 512.001;" xml:space="preserve">
<g>
	<g>
		<g>
			<path d="M483.57,188.557L411.6,43.629c-4.344-8.745-12.657-15.076-22.245-16.94c-0.001,0-0.002,0-0.003-0.001h-0.001
				c0,0-0.001,0-0.002,0c-9.588-1.857-19.668,0.903-26.966,7.388L179.405,196.662h-26.908c-5.809,0-10.517,4.708-10.517,10.517
				v63.102h-21.037V238.73c0-5.809-4.708-10.517-10.517-10.517H47.323c-5.809,0-10.517,4.708-10.517,10.517v31.551H10.517
				C4.708,270.282,0,274.99,0,280.798v68.361c0,5.809,4.708,10.517,10.517,10.517h142.502v21.034H62.923
				c-28.995,0-52.585,23.59-52.585,52.585c0,28.995,23.59,52.585,52.585,52.585h262.925c28.995,0,52.585-23.59,52.585-52.585
				c0-28.995-23.59-52.585-52.585-52.585h-36.108v-21.034h20.511c3.113,0,6.067-1.38,8.065-3.767
				c1.998-2.388,2.835-5.538,2.287-8.603l-21.18-118.282c-2.639-14.77-13.29-26.344-27.005-30.596l101.022-89.763l43.905,88.412
				v108.962c0,4.026,2.299,7.698,5.919,9.459c1.461,0.71,3.032,1.058,4.596,1.058c2.314,0,4.61-0.764,6.5-2.247l60.095-47.217
				c11.149-8.76,17.543-21.915,17.543-36.094C512,211.87,500.238,195.446,483.57,188.557z M57.84,249.247h42.068v21.034H57.84
				V249.247z M325.849,401.744c17.397,0,31.551,14.154,31.551,31.551s-14.154,31.551-31.551,31.551H62.923
				c-17.397,0-31.551-14.154-31.551-31.551s14.154-31.551,31.551-31.551H325.849z M174.054,380.71v-21.034h94.653v21.034H174.054z
				 M297.685,338.642H21.034v-47.327h120.943v15.776c0,5.809,4.708,10.517,10.517,10.517c5.809,0,10.517-4.708,10.517-10.517
				l0.003-89.395h21.034v89.395c0,5.809,4.708,10.517,10.517,10.517h99.355L297.685,338.642z M279.955,239.635l10.197,56.938h-85.07
				v-78.878h55.677c3.293,0,6.405,0.877,9.096,2.425l-20.274,19.707c-4.165,4.049-4.259,10.707-0.211,14.872
				c2.061,2.121,4.8,3.187,7.542,3.187c2.641,0,5.286-0.989,7.329-2.976L279.955,239.635z M367.097,86.166L242.74,196.662h-31.668
				L373.696,52.165L367.097,86.166z M387.745,90.174l6.599-34.002l64.021,128.921h-23.484L387.745,90.174z M481.462,250.552
				l-43.081,33.849v-78.273h27.717c13.713,0,24.869,11.156,24.869,24.869C490.966,238.678,487.502,245.806,481.462,250.552z"/>
			<path d="M224.498,264.737l-0.149,0.147c-4.142,4.071-4.201,10.731-0.129,14.873c2.059,2.095,4.779,3.145,7.502,3.145
				c2.661,0,5.324-1.004,7.371-3.016l0.149-0.147c4.142-4.071,4.201-10.73,0.128-14.873
				C235.3,260.724,228.642,260.666,224.498,264.737z"/>
			<path d="M323.11,443.812h0.154c5.809,0,10.517-4.708,10.517-10.517s-4.708-10.517-10.517-10.517h-0.154
				c-5.809,0-10.517,4.708-10.517,10.517S317.302,443.812,323.11,443.812z"/>
			<path d="M54.992,433.295c0,5.809,4.708,10.517,10.517,10.517h220.572c5.809,0,10.517-4.708,10.517-10.517
				s-4.708-10.517-10.517-10.517H65.509C59.701,422.778,54.992,427.487,54.992,433.295z"/>
		</g>
	</g>
</g>
<g>
</g>
<g>
</g>
<g>
</g>
<g>
</g>
<g>
</g>
<g>
</g>
<g>
</g>
<g>
</g>
<g>
</g>
<g>
</g>
<g>
</g>
<g>
</g>
<g>
</g>
<g>
</g>
<g>
</g>
</svg>
