<?xml version="1.0" encoding="iso-8859-1"?>
<!-- Generator: Adobe Illustrator 19.0.0, SVG Export Plug-In . SVG Version: 6.00 Build 0)  -->
<svg version="1.1" id="Capa_1" fill='#327E9C' xmlns="http://www.w3.org/2000/svg" xmlns:xlink="http://www.w3.org/1999/xlink" x="0px" y="0px"
	 viewBox="0 0 512 512" style="enable-background:new 0 0 512 512;" xml:space="preserve">
<g>
	<g>
		<path d="M437.02,79.904C388.694,31.578,324.449,4.953,256.11,4.924c-0.012,0-0.025,0-0.036,0c-0.025,0-0.049-0.001-0.074-0.001
			c-0.024,0-0.047,0.001-0.071,0.001c-0.015,0-0.03,0-0.044,0.001C187.548,4.955,123.305,31.58,74.98,79.904
			C26.629,128.256,0,192.543,0,260.923c0,5.438,4.408,9.846,9.846,9.846c5.438,0,9.846-4.408,9.846-9.846
			c0-13.944,30.88-29.538,72.205-29.538c41.325,0,72.205,15.594,72.205,29.538c0,5.438,4.408,9.846,9.846,9.846
			s9.846-4.408,9.846-9.846c0-10.346,17.011-21.596,42.666-26.715v194.099c0,10.858-8.834,19.692-19.692,19.692
			s-19.692-8.834-19.692-19.692v-9.846c0-16.288-13.251-29.538-29.538-29.538s-29.538,13.251-29.538,29.538v9.846
			c0,43.433,35.336,78.769,78.769,78.769s78.769-35.336,78.769-78.769V234.209c25.656,5.119,42.666,16.368,42.666,26.715
			c0,5.438,4.408,9.846,9.846,9.846s9.846-4.408,9.846-9.846c0-13.944,30.879-29.538,72.205-29.538s72.207,15.594,72.207,29.538
			c0,5.438,4.408,9.846,9.846,9.846c5.438,0,9.846-4.408,9.846-9.846C512,192.543,485.371,128.256,437.02,79.904z M164.103,190.85
			v38.985c-2.997-2.006-6.297-3.895-9.926-5.637c-16.801-8.065-38.918-12.506-62.28-12.506c-23.362,0-45.479,4.441-62.28,12.506
			c-2.743,1.316-5.31,2.714-7.693,4.183C36.641,122.002,122.441,38.026,229.669,26.083
			C187.72,70.378,164.103,129.062,164.103,190.85z M265.846,428.308c0,32.575-26.502,59.077-59.077,59.077
			s-59.077-26.502-59.077-59.077v-9.846c0-5.429,4.417-9.846,9.846-9.846c5.429,0,9.846,4.417,9.846,9.846v9.846
			c0,21.717,17.668,39.385,39.385,39.385s39.385-17.668,39.385-39.385V231.694c0.174-0.011,0.349-0.021,0.524-0.031
			c1.235-0.072,2.472-0.128,3.712-0.171c0.349-0.012,0.694-0.027,1.045-0.036c3.041-0.087,6.091-0.087,9.131,0
			c0.35,0.01,0.696,0.025,1.045,0.036c1.24,0.043,2.477,0.099,3.712,0.171c0.174,0.01,0.35,0.02,0.524,0.031V428.308z
			 M328.205,229.835c-2.996-2.006-6.296-3.895-9.925-5.637c-12.935-6.209-29.028-10.26-46.409-11.8
			c-0.156-0.014-0.311-0.026-0.467-0.039c-1.503-0.129-3.015-0.239-4.535-0.33c-0.226-0.014-0.452-0.028-0.678-0.04
			c-1.558-0.088-3.123-0.157-4.698-0.204c-0.109-0.003-0.218-0.009-0.326-0.012c-1.715-0.048-3.436-0.081-5.167-0.081
			c-1.731,0-3.452,0.032-5.167,0.081c-0.109,0.003-0.218,0.009-0.326,0.012c-1.574,0.047-3.139,0.116-4.698,0.204
			c-0.226,0.013-0.452,0.027-0.677,0.04c-1.52,0.092-3.033,0.201-4.535,0.33c-0.156,0.014-0.311,0.026-0.467,0.039
			c-17.38,1.54-33.474,5.59-46.409,11.8c-3.629,1.742-6.929,3.631-9.926,5.637V190.85c0-62.369,26.221-121.289,72.205-162.987
			c45.984,41.699,72.205,100.619,72.205,162.987V229.835z M482.382,224.198c-16.799-8.065-38.918-12.506-62.279-12.506
			c-9.076,0-17.958,0.678-26.42,1.971V190.85c0-13.229-1.107-26.546-3.288-39.581c-0.897-5.363-5.973-8.986-11.336-8.086
			c-5.363,0.898-8.984,5.973-8.086,11.336c2.002,11.964,3.017,24.187,3.017,36.33v27.185c-5.779,1.728-11.209,3.783-16.166,6.163
			c-3.629,1.742-6.929,3.631-9.926,5.637V190.85c0-61.788-23.618-120.472-65.567-164.767
			C389.56,38.026,475.359,122.001,490.076,228.38C487.692,226.912,485.126,225.514,482.382,224.198z"/>
	</g>
</g>
<g>
	<g>
		<path d="M383.588,122.004c-1.558-5.196-7.024-8.144-12.225-6.604c-5.202,1.541-8.174,7.008-6.65,12.213
			c0.006,0.021,0.017,0.057,0.023,0.079c1.278,4.262,5.184,7.007,9.415,7.007c0.939,0,1.894-0.136,2.841-0.419
			C382.199,132.716,385.15,127.212,383.588,122.004z"/>
	</g>
</g>
<g>
</g>
<g>
</g>
<g>
</g>
<g>
</g>
<g>
</g>
<g>
</g>
<g>
</g>
<g>
</g>
<g>
</g>
<g>
</g>
<g>
</g>
<g>
</g>
<g>
</g>
<g>
</g>
<g>
</g>
</svg>
