<?xml version="1.0" encoding="iso-8859-1"?>
<!-- Generator: Adobe Illustrator 19.0.0, SVG Export Plug-In . SVG Version: 6.00 Build 0)  -->
<svg version="1.1" id="Capa_1" fill='#5CBE78' xmlns="http://www.w3.org/2000/svg" xmlns:xlink="http://www.w3.org/1999/xlink" x="0px" y="0px"
	 viewBox="0 0 512 512" style="enable-background:new 0 0 512 512;" xml:space="preserve">
<g>
	<g>
		<path d="M502,370.994h-7V77.006c0-5.523-4.478-10-10-10H27c-5.522,0-10,4.477-10,10v293.988h-7c-5.522,0-10,4.477-10,10v8.25
			c0,30.741,25.01,55.75,55.75,55.75h400.5c30.74,0,55.75-25.009,55.75-55.75v-8.25C512,375.471,507.522,370.994,502,370.994z
			 M37,87.006h438v283.988h-20V117.006c0-5.523-4.478-10-10-10H291c-5.522,0-10,4.477-10,10s4.478,10,10,10h144v243.988H323.079
			c-4.092,0-7.771,2.493-9.288,6.293c-2.596,6.504-8.794,10.707-15.791,10.707h-84c-6.997,0-13.195-4.203-15.791-10.707
			c-1.518-3.801-5.196-6.293-9.288-6.293H77V127.006h145.5c5.522,0,10-4.477,10-10s-4.478-10-10-10H67c-5.522,0-10,4.477-10,10
			v253.988H37V87.006z M456.25,424.994H55.75c-19.126,0-34.791-15.098-35.708-34h162.817c6.711,10.508,18.309,17,31.141,17h84
			c12.832,0,24.43-6.492,31.141-17h162.817C491.041,409.896,475.376,424.994,456.25,424.994z"/>
	</g>
</g>
<g>
	<g>
		<path d="M256.167,107.006h-0.417c-5.522,0-10,4.477-10,10s4.478,10,10,10h0.417c5.522,0,10-4.477,10-10
			S261.689,107.006,256.167,107.006z"/>
	</g>
</g>
<g>
	<g>
		<path d="M355.518,307.796L237.783,190.061c-3.907-3.905-10.237-3.905-14.143,0c-3.905,3.906-3.905,10.238,0,14.143
			l117.735,117.735c1.953,1.953,4.511,2.929,7.071,2.929s5.118-0.976,7.072-2.929C359.423,318.033,359.423,311.701,355.518,307.796z
			"/>
	</g>
</g>
<g>
	<g>
		<path d="M203.581,226.214l-32.955-32.955c-3.907-3.905-10.237-3.905-14.143,0c-3.905,3.906-3.905,10.238,0,14.143l32.955,32.955
			c1.953,1.953,4.511,2.929,7.071,2.929c2.559,0,5.118-0.976,7.072-2.929C207.486,236.451,207.486,230.119,203.581,226.214z"/>
	</g>
</g>
<g>
	<g>
		<path d="M226.791,249.425l-0.092-0.093c-3.886-3.927-10.217-3.959-14.142-0.075c-3.926,3.885-3.96,10.216-0.075,14.142
			l0.092,0.093c1.956,1.976,4.531,2.966,7.108,2.966c2.542,0,5.084-0.962,7.034-2.891
			C230.642,259.682,230.676,253.351,226.791,249.425z"/>
	</g>
</g>
<g>
	<g>
		<path d="M282.751,305.384l-33.329-33.329c-3.907-3.905-10.237-3.905-14.143,0c-3.905,3.906-3.905,10.238,0,14.143l33.329,33.329
			c1.953,1.953,4.511,2.929,7.071,2.929c2.559,0,5.118-0.976,7.072-2.929C286.656,315.621,286.656,309.289,282.751,305.384z"/>
	</g>
</g>
<g>
</g>
<g>
</g>
<g>
</g>
<g>
</g>
<g>
</g>
<g>
</g>
<g>
</g>
<g>
</g>
<g>
</g>
<g>
</g>
<g>
</g>
<g>
</g>
<g>
</g>
<g>
</g>
<g>
</g>
</svg>
