<svg height="512pt" viewBox="0 0 512 512" fill='#C377D3' width="512pt" xmlns="http://www.w3.org/2000/svg"><path d="m502 261.046875c5.523438 0 10-4.480469 10-10v-115.722656c0-5.519531-4.476562-10-10-10h-45.78125v-2.050781c0-67.972657-55.300781-123.273438-123.277344-123.273438-67.972656 0-123.269531 55.300781-123.269531 123.273438v2.050781h-45.785156c-5.519531 0-10 4.480469-10 10v144.902343h-119.859375c-18.761719 0-34.027344 15.257813-34.027344 34.015626v163.738281c0 18.757812 15.265625 34.019531 34.027344 34.019531h430.648437c26.09375 0 47.324219-21.230469 47.324219-47.324219v-123.183593c0-5.519532-4.476562-10-10-10s-10 4.480468-10 10v86.480468h-163.101562v-113.730468c0-18.757813-15.265626-34.015626-34.027344-34.015626h-120.984375v-134.902343h35.785156v77.863281c0 5.523438 4.476563 10 10 10h121.996094c5.523437 0 10-4.476562 10-10s-4.476563-10-10-10h-66.996094v-67.863281h116.546875v77.863281c0 5.523438 4.476562 10 10 10h45c5.519531 0 10-4.476562 10-10v-77.863281h35.78125v105.722656c0 5.519531 4.476562 10 10 10zm-482 216.933594v-124.363281h288.898438v124.363281c0 7.730469-6.292969 14.019531-14.027344 14.019531h-260.84375c-7.734375 0-14.027344-6.289062-14.027344-14.019531zm472-30.007813v16.703125c0 15.066407-12.257812 27.324219-27.324219 27.324219h-138.804687c1.941406-4.277344 3.023437-9.023438 3.023437-14.019531v-30.007813zm-183.101562-133.730468v19.375h-288.898438v-19.375c0-7.726563 6.292969-14.015626 14.027344-14.015626h260.839844c7.734374 0 14.03125 6.289063 14.03125 14.015626zm-34.226563-188.917969v-2.050781c0-32.132813 26.140625-58.273438 58.269531-58.273438 32.132813 0 58.277344 26.140625 58.277344 58.273438v2.050781zm161.546875 87.863281h-25v-89.914062c0-43.160157-35.113281-78.273438-78.273438-78.273438-43.160156 0-78.273437 35.113281-78.273437 78.273438v89.914062h-25v-89.914062c0-56.945313 46.328125-103.273438 103.273437-103.273438 56.945313 0 103.273438 46.328125 103.273438 103.273438zm0 0"/><path d="m239.570312 374.742188c-8.5 0-16.46875 2.316406-23.308593 6.351562-7.042969-4.171875-15.011719-6.351562-23.359375-6.351562-25.378906 0-46.03125 20.648437-46.03125 46.03125 0 25.382812 20.652344 46.03125 46.03125 46.03125 8.347656 0 16.316406-2.179688 23.359375-6.351563 6.839843 4.035156 14.808593 6.351563 23.308593 6.351563 25.382813 0 46.03125-20.648438 46.03125-46.03125 0-25.382813-20.648437-46.03125-46.03125-46.03125zm-72.699218 46.03125c0-14.355469 11.679687-26.03125 26.03125-26.03125 2.730468 0 5.390625.410156 7.914062 1.214843-4.601562 7.164063-7.277344 15.683594-7.277344 24.816407 0 9.132812 2.675782 17.652343 7.277344 24.816406-2.523437.800781-5.183594 1.214844-7.914062 1.214844-14.351563 0-26.03125-11.675782-26.03125-26.03125zm72.699218 26.03125c-14.351562 0-26.03125-11.675782-26.03125-26.03125 0-14.351563 11.679688-26.03125 26.03125-26.03125 14.355469 0 26.03125 11.679687 26.03125 26.03125 0 14.355468-11.675781 26.03125-26.03125 26.03125zm0 0"/><path d="m100.292969 411.058594h-47c-5.523438 0-10-4.476563-10-10 0-5.523438 4.476562-10 10-10h47c5.523437 0 10 4.476562 10 10 0 5.519531-4.476563 10-10 10zm0 0"/><path d="m100.292969 454.558594h-47c-5.523438 0-10-4.476563-10-10 0-5.519532 4.476562-10 10-10h47c5.523437 0 10 4.480468 10 10 0 5.523437-4.476563 10-10 10zm0 0"/><path d="m502 306.089844c-4.140625 0-7.878906-2.636719-9.355469-6.480469-1.503906-3.921875-.269531-8.546875 2.964844-11.21875 3.101563-2.554687 7.554687-3.007813 11.101563-1.121094 3.78125 2.011719 5.875 6.363281 5.125 10.574219-.839844 4.703125-5.050782 8.246094-9.835938 8.246094zm0 0"/></svg>