<?xml version="1.0" encoding="iso-8859-1"?>
<!-- Generator: Adobe Illustrator 19.0.0, SVG Export Plug-In . SVG Version: 6.00 Build 0)  -->
<svg version="1.1" id="Capa_1" xmlns="http://www.w3.org/2000/svg" fill='#AD49E5' xmlns:xlink="http://www.w3.org/1999/xlink" x="0px" y="0px"
	 viewBox="0 0 512 512" style="enable-background:new 0 0 512 512;" xml:space="preserve">
<g>
	<g>
		<path d="M205.987,92.424c5.522,0,9.999-4.478,9.999-9.999s-4.478-9.999-9.999-9.999H82.419
			c5.501-9.232,15.58-15.434,27.085-15.434h96.483c5.522,0,9.999-4.478,9.999-9.999c0-25.902-21.074-46.976-46.976-46.976H75.495
			C33.867,0.016,0,33.883,0,75.511v367.642c0,36.936,28.506,67.14,64.897,68.762c1.051,0.047,2.097,0.07,3.141,0.07
			c17.601-0.001,34.17-6.63,46.95-18.853c13.544-12.954,21.004-30.407,21.004-49.144c0-18.454-7.271-35.722-20.474-48.621
			c-15.096-14.749-24.205-33.46-26.137-53.373h79.629c25.903,0,46.977-21.075,46.977-46.977c0-5.522-4.478-9.999-9.999-9.999
			h-96.483c-11.505,0-21.585-6.201-27.085-15.434h123.568c5.522,0,9.999-4.478,9.999-9.999s-4.478-9.999-9.999-9.999H77.995v-15.434
			h127.992c5.522,0,9.999-4.478,9.999-9.999c0-5.522-4.478-9.999-9.999-9.999H77.995v-15.434h127.992
			c5.522,0,9.999-4.478,9.999-9.999s-4.478-9.999-9.999-9.999H77.995v-15.433h127.992c5.522,0,9.999-4.478,9.999-9.999
			c0-5.522-4.478-9.999-9.999-9.999H77.995v-15.434h127.992c5.522,0,9.999-4.478,9.999-9.999c0-5.522-4.478-9.999-9.999-9.999
			H77.995V92.424H205.987z M58.801,79.498c-0.283,0.926-0.438,1.908-0.438,2.927c0,0.008,0.001,0.016,0.001,0.024
			c-0.234,1.986-0.368,4.003-0.368,6.051V253.51c0,2.048,0.134,4.065,0.367,6.051c0,0.008-0.001,0.016-0.001,0.024
			c0,1.019,0.154,2.001,0.438,2.927c4.272,24.121,25.374,42.504,50.704,42.504h84.563c-3.981,9.939-13.712,16.978-25.057,16.978
			H78.995c-5.522,0-9.999,4.478-9.999,9.999v1.993c0,28.301,11.559,55.179,32.547,75.684c9.318,9.105,14.45,21.293,14.45,34.318
			c0,13.226-5.267,25.546-14.828,34.691c-9.555,9.138-22.124,13.836-35.377,13.256c-25.676-1.145-45.789-22.572-45.789-48.782
			V75.511c0-30.601,24.895-55.497,55.497-55.497h93.515c11.345,0,21.076,7.039,25.057,16.978h-84.563
			C84.176,36.992,63.073,55.376,58.801,79.498z"/>
	</g>
</g>
<g>
	<g>
		<path d="M507.905,420.935c-12.793-35.149-51.797-53.341-86.946-40.543c-17.524,6.379-30.83,19.274-38.185,34.957l-15.286-41.996
			l76.398-209.903c18.832-51.737,14.933-109.358-10.696-158.09c-1.838-3.493-5.567-5.572-9.492-5.324
			c-3.938,0.254-7.357,2.799-8.73,6.498l-24.617,66.274c-1.923,5.177,0.715,10.932,5.892,12.854
			c5.177,1.922,10.933-0.716,12.855-5.892l16.054-43.22c13.948,38.528,14.106,81.148-0.056,120.058l-34.951,96.028l-22.629-60.921
			l19.154-51.566c1.923-5.178-0.715-10.933-5.892-12.855c-5.178-1.924-10.934,0.715-12.855,5.892l-11.073,29.813L298.73,6.532
			c-1.374-3.698-4.794-6.243-8.73-6.497c-3.926-0.24-7.654,1.832-9.492,5.324c-25.629,48.731-29.528,106.352-10.696,158.09
			l76.398,209.903l-15.285,41.996c-7.355-15.683-20.661-28.578-38.186-34.957c-17.028-6.2-35.448-5.395-51.869,2.265
			c-16.422,7.658-28.879,21.252-35.076,38.279c-12.794,35.148,5.395,74.152,40.544,86.947c7.633,2.777,15.444,4.095,23.133,4.095
			c27.717,0,53.8-17.124,63.813-44.64c0,0,0,0,0.001,0c0.004-0.011,0.007-0.023,0.011-0.034l23.555-64.716l23.555,64.716
			c0.004,0.011,0.007,0.023,0.011,0.034c0.001,0,0.001,0,0.001,0c10.015,27.518,36.094,44.64,63.812,44.64
			c7.688,0,15.503-1.317,23.134-4.096C502.511,495.088,520.698,456.083,507.905,420.935z M314.489,460.497
			c-9.021,24.785-36.526,37.612-61.314,28.592c-24.786-9.021-37.612-36.528-28.591-61.314c4.371-12.007,13.155-21.594,24.735-26.993
			c6.432-2.999,13.297-4.508,20.187-4.508c5.518,0,11.051,0.967,16.391,2.91C310.684,408.205,323.51,435.71,314.489,460.497
			L314.489,460.497z M288.602,156.61c-14.162-38.911-14.004-81.531-0.056-120.059l57.635,155.165l-22.629,60.921L288.602,156.61z
			 M356.849,344.117l-22.738-62.47l22.738-61.213l22.738,61.213L356.849,344.117z M487.516,464.354
			c-5.4,11.58-14.986,20.365-26.993,24.734c-24.783,9.024-52.292-3.804-61.314-28.591h0.001
			c-9.021-24.786,3.805-52.292,28.59-61.313c24.787-9.018,52.292,3.805,61.314,28.591
			C493.483,439.782,492.915,452.772,487.516,464.354z"/>
	</g>
</g>
<g>
	<g>
		<path d="M392.108,96.777c-5.178-1.918-10.933,0.721-12.852,5.899l-0.074,0.2c-1.92,5.18,0.722,10.933,5.899,12.852
			c1.146,0.425,2.32,0.627,3.476,0.627c4.063,0,7.883-2.494,9.376-6.526l0.074-0.2C399.926,104.45,397.284,98.696,392.108,96.777z"
			/>
	</g>
</g>
<g>
	<g>
		<path d="M355.374,273.775c-5.522,0-9.999,4.478-9.999,9.999v0.141c0,5.522,4.478,9.999,9.999,9.999s9.999-4.478,9.999-9.999
			v-0.141C365.373,278.252,360.895,273.775,355.374,273.775z"/>
	</g>
</g>
<g>
</g>
<g>
</g>
<g>
</g>
<g>
</g>
<g>
</g>
<g>
</g>
<g>
</g>
<g>
</g>
<g>
</g>
<g>
</g>
<g>
</g>
<g>
</g>
<g>
</g>
<g>
</g>
<g>
</g>
</svg>
