<svg  id="svg" xmlns="http://www.w3.org/2000/svg" xmlns:xlink="http://www.w3.org/1999/xlink" width="400" height="200.36385688295937" viewBox="0, 0, 400,200.36385688295937"><g id="svgg"><path id="path0" d="M49.485 15.672 C 28.377 19.662,24.561 47.108,43.948 55.490 C 61.545 63.097,79.387 44.231,70.800 27.096 C 66.921 19.355,57.295 14.196,49.485 15.672 M205.215 33.608 C 202.747 34.055,198.490 34.821,195.755 35.309 C 189.383 36.448,187.194 37.212,185.474 38.902 C 183.031 41.302,183.263 34.973,183.263 99.212 L 183.263 155.367 183.810 157.108 C 185.184 161.478,187.647 162.512,196.705 162.519 C 207.396 162.527,210.536 160.583,210.549 153.946 L 210.552 152.526 212.507 154.310 C 223.896 164.705,239.364 167.619,254.821 162.281 C 292.017 149.437,295.560 92.229,260.279 74.142 C 248.329 68.016,233.805 67.578,221.736 72.981 L 219.042 74.187 219.042 57.612 C 219.042 37.373,219.009 37.101,216.212 34.395 C 214.258 32.505,212.142 32.354,205.215 33.608 M311.947 33.608 C 309.478 34.055,305.221 34.821,302.486 35.309 C 296.114 36.448,293.926 37.212,292.205 38.902 C 289.762 41.302,289.994 34.973,289.994 99.212 L 289.994 155.367 290.541 157.108 C 291.915 161.478,294.378 162.512,303.437 162.519 C 314.127 162.527,317.267 160.583,317.280 153.946 L 317.283 152.526 319.238 154.310 C 330.627 164.705,346.096 167.619,361.552 162.281 C 398.749 149.437,402.291 92.229,367.010 74.142 C 355.060 68.016,340.536 67.578,328.467 72.981 L 325.773 74.187 325.773 57.612 C 325.773 37.373,325.740 37.101,322.943 34.395 C 320.989 32.505,318.874 32.354,311.947 33.608 M123.226 69.279 C 95.736 71.737,77.876 88.405,75.888 113.457 C 73.584 142.476,95.883 164.824,127.107 164.788 C 159.128 164.752,181.306 141.498,178.034 111.391 C 175.219 85.496,150.894 66.806,123.226 69.279 M41.411 70.844 C 37.387 71.458,35.053 73.868,34.452 78.027 C 34.304 79.052,34.208 92.457,34.202 113.159 C 34.196 131.787,34.090 147.939,33.963 149.576 C 33.277 158.393,31.419 161.337,23.166 166.687 C 18.238 169.882,16.803 173.170,18.519 177.339 C 19.265 179.153,25.973 191.923,26.978 193.442 C 30.416 198.640,35.568 198.130,47.059 191.457 C 63.308 182.020,68.381 173.442,69.908 152.820 C 70.455 145.431,70.358 78.176,69.798 76.365 C 69.013 73.828,67.069 71.908,64.518 71.148 C 62.992 70.694,44.027 70.444,41.411 70.844 M130.975 100.072 C 140.255 102.260,145.458 113.397,141.952 123.569 C 136.532 139.295,114.586 137.535,111.446 121.122 C 108.912 107.881,118.816 97.206,130.975 100.072 M238.886 100.484 C 248.523 103.905,252.697 116.129,247.595 125.990 C 241.794 137.204,225.398 137.204,219.597 125.990 C 212.207 111.704,224.542 95.393,238.886 100.484 M345.617 100.484 C 355.254 103.905,359.428 116.129,354.326 125.990 C 348.525 137.204,332.130 137.204,326.329 125.990 C 318.938 111.704,331.274 95.393,345.617 100.484 " stroke="none" fill="#F64F64" fill-rule="evenodd"></path></g></svg>
